<svg xmlns="http://www.w3.org/2000/svg" xmlns:xlink="http://www.w3.org/1999/xlink" width="500" zoomAndPan="magnify" viewBox="0 0 375 374.999991" height="500" preserveAspectRatio="xMidYMid meet" version="1.0"><defs><clipPath id="2a8869c531"><path d="M 68.933594 26.882812 L 305.933594 26.882812 L 305.933594 347.882812 L 68.933594 347.882812 Z M 68.933594 26.882812 " clip-rule="nonzero"/></clipPath></defs><g clip-path="url(#2a8869c531)"><path fill="#ffffff" d="M 294.179688 157.109375 L 277.796875 157.109375 L 277.796875 117.277344 C 277.863281 67.421875 237.324219 26.882812 187.46875 26.882812 C 137.613281 26.882812 97.070312 67.421875 97.070312 117.277344 L 97.070312 157.109375 L 80.753906 157.109375 C 74.265625 157.109375 68.996094 162.378906 68.996094 168.867188 L 68.996094 336.425781 C 68.996094 342.847656 74.265625 348.117188 80.753906 348.117188 L 294.246094 348.117188 C 300.734375 348.117188 306.003906 342.847656 306.003906 336.359375 L 306.003906 168.867188 C 305.9375 162.378906 300.671875 157.109375 294.179688 157.109375 Z M 120.585938 117.277344 C 120.585938 80.398438 150.589844 50.398438 187.46875 50.398438 C 224.34375 50.398438 254.347656 80.398438 254.347656 117.277344 L 254.347656 157.109375 L 120.585938 157.109375 Z M 199.226562 261.0625 L 199.226562 291.964844 C 199.226562 298.453125 193.957031 303.722656 187.46875 303.722656 C 180.976562 303.722656 175.710938 298.453125 175.710938 291.964844 L 175.710938 261.0625 C 167.613281 256.820312 162.089844 248.339844 162.089844 238.640625 C 162.089844 224.632812 173.460938 213.328125 187.402344 213.328125 C 201.410156 213.328125 212.714844 224.699219 212.714844 238.640625 C 212.84375 248.339844 207.320312 256.820312 199.226562 261.0625 Z M 199.226562 261.0625 " fill-opacity="1" fill-rule="nonzero"/></g></svg>